<?xml version="1.0" standalone="no"?>
<!DOCTYPE svg PUBLIC "-//W3C//DTD SVG 20010904//EN"
 "http://www.w3.org/TR/2001/REC-SVG-20010904/DTD/svg10.dtd">
<svg version="1.0" xmlns="http://www.w3.org/2000/svg"
 width="512.000000pt" height="512.000000pt" viewBox="0 0 512.000000 512.000000"
 preserveAspectRatio="xMidYMid meet">
<metadata>
Created by potrace 1.14, written by Peter Selinger 2001-2017
</metadata>
<g transform="translate(0.000000,512.000000) scale(0.100000,-0.100000)"
fill="#000000" stroke="none">
<path d="M2369 5116 c-2 -2 -35 -7 -74 -10 -38 -3 -79 -8 -90 -10 -11 -2 -40
-7 -65 -11 -25 -3 -58 -9 -75 -11 -61 -10 -233 -56 -335 -90 -808 -271 -1425
-931 -1646 -1761 -16 -60 -19 -75 -44 -209 -28 -150 -34 -237 -34 -464 0 -184
3 -241 19 -345 3 -16 7 -43 9 -60 37 -265 165 -623 307 -860 10 -16 27 -46 38
-65 19 -36 131 -195 166 -239 269 -329 522 -536 866 -707 240 -120 499 -204
735 -239 22 -4 50 -8 64 -11 144 -26 530 -26 708 1 75 12 90 14 142 25 30 6
66 13 80 16 233 44 677 238 882 385 412 296 744 718 921 1174 37 95 95 274
103 320 3 15 11 55 19 89 36 154 49 296 50 521 0 166 -6 285 -19 360 -3 17 -8
44 -10 60 -3 17 -9 53 -15 80 -6 28 -13 61 -15 75 -55 276 -217 639 -401 900
-414 583 -1032 963 -1735 1065 -19 3 -53 7 -75 11 -44 6 -471 15 -476 10z"/>
</g>
</svg>
